<svg width="290" height="206" viewBox="0 0 290 206" fill="none" xmlns="http://www.w3.org/2000/svg">
<g filter="url(#filter0_d_3304_6852)">
<rect x="10" y="6" width="270" height="132" rx="20" fill="black"/>
<rect x="10.5" y="6.5" width="269" height="131" rx="19.5" stroke="white"/>
<path d="M44.1016 55.9375V54.6875H52.6328V55.9375H49.0859V66H47.6641V55.9375H44.1016ZM52.7734 63.5938C52.7734 61.6406 54.4922 61.2031 55.9609 61.0938C56.5 61.0547 57.875 60.9844 58.2578 60.9688V60.2812C58.2578 59.2031 57.6172 58.5781 56.3359 58.5781C55.2578 58.5781 54.6172 59.0781 54.4297 59.7188H53.0234C53.1953 58.3594 54.5234 57.4062 56.3984 57.4062C57.5078 57.4062 59.5859 57.7344 59.5859 60.4062V66H58.2578V64.8438H58.1953C57.9141 65.4219 57.1328 66.2031 55.6641 66.2031C54.0547 66.2031 52.7734 65.25 52.7734 63.5938ZM54.1172 63.6562C54.1172 64.5469 54.8672 65 55.8984 65C57.4141 65 58.2578 63.9844 58.2578 62.9219V62.0625C57.8594 62.0938 56.5234 62.1953 56.1172 62.2188C54.8984 62.2969 54.1172 62.7344 54.1172 63.6562ZM66.4609 59.7188C66.2734 59.0156 65.7422 58.5469 64.7422 58.5469C63.6953 58.5469 62.9453 59.1094 62.9453 59.8281C62.9453 60.3906 63.3984 60.7812 64.3984 61.0156L65.6641 61.3281C67.1797 61.6875 67.9297 62.4375 67.9297 63.625C67.9297 65.0938 66.7266 66.1719 64.6016 66.1719C62.6953 66.1719 61.5547 65.3281 61.3359 63.7812H62.7422C62.8984 64.6094 63.5078 65 64.5703 65C65.7734 65 66.5391 64.5 66.5391 63.7031C66.5391 63.1094 66.1172 62.7031 65.1484 62.4844L63.8672 62.1875C62.3828 61.8438 61.6016 61.0312 61.6016 59.9062C61.6016 58.4531 62.8672 57.4062 64.7422 57.4062C66.4922 57.4062 67.6016 58.3438 67.7734 59.7188H66.4609ZM69.6797 66V54.6875H71.0234V61.2656H71.1797L74.8516 57.5156H76.5078L72.9297 61.1406L76.7734 66H75.0703L71.9297 62L71.0234 62.8281V66H69.6797ZM84.2891 57.5312C84.1641 56.4219 83.1484 55.7812 81.7891 55.7812C80.2891 55.7812 79.3047 56.5625 79.3047 57.6406C79.3047 58.8281 80.6328 59.2656 81.4922 59.4844L82.6172 59.7969C83.8359 60.1094 85.8203 60.8125 85.8203 62.9219C85.8203 64.7656 84.3359 66.2031 81.7109 66.2031C79.2734 66.2031 77.7578 64.9375 77.6328 63.0625H79.0703C79.1953 64.3281 80.3672 64.9219 81.7109 64.9219C83.2734 64.9219 84.4453 64.125 84.4453 62.8906C84.4453 61.7969 83.3984 61.375 82.2109 61.0312L80.8203 60.6562C79.0391 60.1406 77.9453 59.2344 77.9453 57.7031C77.9453 55.7969 79.6484 54.5312 81.8359 54.5312C84.0234 54.5312 85.6016 55.8125 85.6641 57.5312H84.2891ZM91.3672 57.5156V58.6406H89.5859V63.5625C89.5859 64.6562 90.1172 64.8281 90.6953 64.8281C90.9453 64.8281 91.2891 64.8125 91.4922 64.7969V66.0469C91.2891 66.0781 90.9453 66.1094 90.5547 66.1094C89.4297 66.1094 88.2266 65.4062 88.2266 63.9062V58.6406H86.9453V57.5156H88.2266V55.4844H89.5859V57.5156H91.3672ZM96.4766 66.1719C94.1641 66.1719 92.6016 64.4375 92.6016 61.7969C92.6016 59.1562 94.1641 57.4062 96.4766 57.4062C98.7734 57.4062 100.32 59.1562 100.32 61.7969C100.32 64.4375 98.7734 66.1719 96.4766 66.1719ZM96.4766 64.9844C98.1797 64.9844 98.9766 63.4844 98.9766 61.7969C98.9766 60.1094 98.1797 58.5938 96.4766 58.5938C94.7422 58.5938 93.9453 60.1094 93.9453 61.7969C93.9453 63.4844 94.7422 64.9844 96.4766 64.9844ZM105.555 66.1719C103.148 66.1719 101.68 64.3438 101.68 61.7969C101.68 59.2188 103.211 57.4062 105.523 57.4062C107.336 57.4062 108.68 58.4688 108.898 60.0781H107.555C107.367 59.2969 106.68 58.5938 105.555 58.5938C104.039 58.5938 103.023 59.8438 103.023 61.75C103.023 63.7188 104.008 64.9688 105.555 64.9688C106.555 64.9688 107.32 64.4375 107.555 63.5H108.898C108.68 65.0156 107.445 66.1719 105.555 66.1719ZM110.555 66V54.6875H111.898V61.2656H112.055L115.727 57.5156H117.383L113.805 61.1406L117.648 66H115.945L112.805 62L111.898 62.8281V66H110.555ZM130.211 53.375V67.2656H129.023V53.375H130.211ZM127.414 53.6719V66.5625H126.242V59.8125H124.461C124.328 62.5156 123.18 64.2031 121.461 64.2031C119.648 64.2031 118.477 62.3281 118.477 59.375C118.477 56.4219 119.648 54.5469 121.461 54.5469C123.148 54.5469 124.289 56.1797 124.445 58.7969H126.242V53.6719H127.414ZM121.461 55.7031C120.336 55.7031 119.617 57.1094 119.633 59.375C119.617 61.625 120.336 63.0469 121.461 63.0312C122.586 63.0469 123.305 61.625 123.305 59.375C123.305 57.1094 122.586 55.7031 121.461 55.7031ZM142.477 54.2812C145.43 54.2969 147.555 55.7344 147.555 57.9219C147.555 59.9922 145.711 61.3672 143.07 61.5312V64.4531H148.867V65.4844H136.148V64.4531H141.867V61.5312C139.234 61.3594 137.398 59.9844 137.398 57.9219C137.398 55.7344 139.523 54.2969 142.477 54.2812ZM142.477 55.2969C140.227 55.2969 138.586 56.3594 138.586 57.9219C138.586 59.5312 140.227 60.5625 142.477 60.5781C144.727 60.5625 146.367 59.5312 146.367 57.9219C146.367 56.3594 144.727 55.2969 142.477 55.2969ZM161.445 53.3906V63.5781H160.227V53.3906H161.445ZM161.883 65.9375V66.9688H152.477V62.6406H153.695V65.9375H161.883ZM154.898 55.5625C154.883 57.6719 156.336 59.5781 158.398 60.3281L157.758 61.3125C156.148 60.6953 154.898 59.4453 154.289 57.8438C153.672 59.5469 152.406 60.9141 150.789 61.5625L150.117 60.6094C152.227 59.7969 153.648 57.75 153.648 55.5625V54.1719H154.898V55.5625ZM179.336 53.375V60.5156H178.102V57.75H175.023V56.7344H178.102V53.375H179.336ZM174.914 54.0625C174.914 57.5156 172.477 59.7969 168.477 60.8125L168.039 59.7969C171.367 58.9922 173.359 57.3047 173.617 55.0781H168.758V54.0625H174.914ZM179.336 61.1094V64.5H171.586V66.125H179.805V67.1406H170.367V63.5625H178.102V62.1094H170.336V61.1094H179.336ZM196.508 53.375V58.25H198.586V59.2812H196.508V64.25H195.273V53.375H196.508ZM197.008 65.9375V66.9688H187.68V63.5156H188.914V65.9375H197.008ZM185.602 61.6406C186.703 61.6406 188.008 61.6328 189.367 61.5781V60.5156C187.75 60.3672 186.711 59.5938 186.711 58.4219C186.711 57.0781 188.008 56.2812 189.961 56.2812C191.93 56.2812 193.211 57.0781 193.227 58.4219C193.211 59.5859 192.195 60.3594 190.586 60.5156V61.5156C191.891 61.4531 193.203 61.3281 194.414 61.1406L194.523 62.0156C191.539 62.5781 188.18 62.625 185.742 62.6406L185.602 61.6406ZM193.992 54.75V55.6719H185.945V54.75H189.367V53.3438H190.586V54.75H193.992ZM189.961 57.1562C188.68 57.1562 187.883 57.6406 187.883 58.4219C187.883 59.1875 188.68 59.6719 189.961 59.6719C191.242 59.6719 192.055 59.1875 192.055 58.4219C192.055 57.6406 191.242 57.1562 189.961 57.1562ZM203.32 54.2188C204.492 54.2109 205.492 54.6484 206.133 55.3906H209.773V53.375H211.008V61.6094H209.773V59.625H206.148C205.492 60.3672 204.492 60.8047 203.32 60.7969C201.242 60.8125 199.711 59.4531 199.711 57.5156C199.711 55.5625 201.242 54.2031 203.32 54.2188ZM203.32 55.2812C201.898 55.2656 200.883 56.2031 200.883 57.5156C200.883 58.8125 201.898 59.75 203.32 59.75C204.695 59.75 205.727 58.8125 205.727 57.5156C205.727 56.2031 204.695 55.2656 203.32 55.2812ZM206.398 61.9375C209.273 61.9375 211.055 62.9062 211.055 64.5781C211.055 66.2656 209.273 67.2344 206.398 67.2344C203.508 67.2344 201.742 66.2656 201.742 64.5781C201.742 62.9062 203.508 61.9375 206.398 61.9375ZM206.398 62.8906C204.273 62.8906 202.945 63.5312 202.945 64.5781C202.945 65.625 204.273 66.25 206.398 66.25C208.539 66.25 209.852 65.625 209.852 64.5781C209.852 63.5312 208.539 62.8906 206.398 62.8906ZM206.727 56.3906C206.844 56.7344 206.914 57.1094 206.914 57.5156C206.914 57.9062 206.844 58.2734 206.727 58.6094H209.773V56.3906H206.727ZM220.258 55.7812V56.7812H213.289V55.7812H216.18V53.7969H217.398V55.7812H220.258ZM216.773 57.7188C218.523 57.7188 219.773 59.0312 219.789 60.875C219.773 62.7344 218.523 64.0625 216.773 64.0625C215.039 64.0625 213.789 62.7344 213.789 60.875C213.789 59.0312 215.039 57.7188 216.773 57.7188ZM216.773 58.75C215.68 58.7656 214.883 59.6562 214.883 60.875C214.883 62.1094 215.68 63 216.773 62.9844C217.883 63 218.695 62.1094 218.695 60.875C218.695 59.6562 217.883 58.7656 216.773 58.75ZM225.148 53.375V67.2656H223.977V60.25H222.133V66.5781H220.977V53.7188H222.133V59.2344H223.977V53.375H225.148ZM239.867 64.4531V65.4844H227.148V64.4531H230.305V60.7031C229.117 60.0859 228.398 59.0859 228.398 57.8281C228.398 55.6719 230.508 54.2656 233.477 54.25C236.445 54.2656 238.555 55.6719 238.555 57.8281C238.555 59.0625 237.859 60.0547 236.711 60.6719V64.4531H239.867ZM233.477 55.2656C231.195 55.25 229.586 56.2812 229.586 57.8281C229.586 59.375 231.195 60.4219 233.477 60.4219C235.742 60.4219 237.367 59.375 237.367 57.8281C237.367 56.2812 235.742 55.25 233.477 55.2656ZM231.508 64.4531H235.477V61.1406C234.875 61.3047 234.203 61.3906 233.477 61.3906C232.766 61.3906 232.102 61.3125 231.508 61.1562V64.4531ZM243.227 54.6875L243.117 62.8125H241.805L241.695 54.6875H243.227ZM242.461 66.0938C241.914 66.0938 241.445 65.6406 241.461 65.0781C241.445 64.5312 241.914 64.0781 242.461 64.0781C243.008 64.0781 243.461 64.5312 243.461 65.0781C243.461 65.6406 243.008 66.0938 242.461 66.0938ZM85.3438 76.3281V79.7031H87.4531V80.7188H85.3438V84.0156H84.125V76.3281H85.3438ZM85.3438 84.7344V87.8125H77.7188V89.1719H85.8594V90.1094H76.5156V86.9062H84.125V85.6562H76.4844V84.7344H85.3438ZM82.7969 77.6406V78.625H74.5156V77.6406H78.0469V76.2344H79.2656V77.6406H82.7969ZM78.6562 79.25C80.6719 79.25 81.9844 80.125 82 81.5312C81.9844 82.9375 80.6719 83.8125 78.6562 83.8125C76.625 83.8125 75.2969 82.9375 75.3125 81.5312C75.2969 80.125 76.625 79.25 78.6562 79.25ZM78.6562 80.1562C77.3438 80.1562 76.4688 80.7031 76.4844 81.5312C76.4688 82.375 77.3438 82.8906 78.6562 82.8906C79.9688 82.8906 80.8281 82.375 80.8438 81.5312C80.8281 80.7031 79.9688 80.1562 78.6562 80.1562ZM96.2656 76.8906C98.3438 76.9062 99.8594 78.1562 99.8594 79.9688C99.8594 81.7812 98.3438 83.0312 96.2656 83.0312C94.1562 83.0312 92.6562 81.7812 92.6562 79.9688C92.6562 78.1562 94.1562 76.9062 96.2656 76.8906ZM96.2656 77.9219C94.875 77.9219 93.8438 78.7656 93.8594 79.9688C93.8438 81.1875 94.875 82.0312 96.2656 82.0312C97.6406 82.0312 98.6719 81.1875 98.6719 79.9688C98.6719 78.7656 97.6406 77.9219 96.2656 77.9219ZM103.797 76.375V83.5156H102.578V76.375H103.797ZM103.797 84.1875V87.5312H96V89.0938H104.297V90.0781H94.7969V86.6094H102.578V85.1719H94.7656V84.1875H103.797ZM112.484 76.625C115.578 76.625 117.391 77.4688 117.391 79.0156C117.391 80.5938 115.578 81.4375 112.484 81.4531C109.391 81.4375 107.562 80.5938 107.562 79.0156C107.562 77.4688 109.391 76.625 112.484 76.625ZM112.484 77.5469C110.172 77.5469 108.828 78.1094 108.844 79.0156C108.828 79.9844 110.172 80.5156 112.484 80.5156C114.781 80.5156 116.141 79.9844 116.141 79.0156C116.141 78.1094 114.781 77.5469 112.484 77.5469ZM118.812 82.3906V83.3906H106.156V82.3906H118.812ZM117.188 84.5938V87.7031H108.938V89.1406H117.609V90.1094H107.719V86.7969H115.984V85.5312H107.688V84.5938H117.188ZM136.672 82.9844V84.0156H124V82.9844H136.672ZM135.188 80.6562V81.6562H125.609V76.9375H135.094V77.9688H126.812V80.6562H135.188ZM130.328 85.2344C133.312 85.2344 135.094 86.1406 135.109 87.7344C135.094 89.3438 133.312 90.2344 130.328 90.2344C127.328 90.2344 125.531 89.3438 125.531 87.7344C125.531 86.1406 127.328 85.2344 130.328 85.2344ZM130.328 86.1875C128.094 86.2031 126.766 86.7656 126.781 87.7344C126.766 88.7188 128.094 89.2656 130.328 89.2656C132.531 89.2656 133.875 88.7188 133.875 87.7344C133.875 86.7656 132.531 86.2031 130.328 86.1875ZM150.531 84.0312V85.0469H137.812V84.0312H143.562V82.5625H139.469V79.1719H147.656V77.7344H139.422V76.7344H148.891V80.0938H140.688V81.5781H149.188V82.5625H144.766V84.0312H150.531ZM148.969 86.1094V90.1406H147.734V87.1094H139.234V86.1094H148.969ZM158.594 78.7812V79.7812H151.625V78.7812H154.516V76.7969H155.734V78.7812H158.594ZM155.109 80.7188C156.859 80.7188 158.109 82.0312 158.125 83.875C158.109 85.7344 156.859 87.0625 155.109 87.0625C153.375 87.0625 152.125 85.7344 152.125 83.875C152.125 82.0312 153.375 80.7188 155.109 80.7188ZM155.109 81.75C154.016 81.7656 153.219 82.6562 153.219 83.875C153.219 85.1094 154.016 86 155.109 85.9844C156.219 86 157.031 85.1094 157.031 83.875C157.031 82.6562 156.219 81.7656 155.109 81.75ZM163.484 76.375V90.2656H162.312V83.25H160.469V89.5781H159.312V76.7188H160.469V82.2344H162.312V76.375H163.484ZM168.391 76.6094V77.9375H175.266V76.6094H176.484V81.1719H172.391V82.5469H178.141V83.5469H165.484V82.5469H171.188V81.1719H167.172V76.6094H168.391ZM168.391 80.2188H175.266V78.875H168.391V80.2188ZM176.516 84.7031V87.7812H168.266V89.1406H176.938V90.1094H167.047V86.875H175.312V85.6406H167.016V84.7031H176.516ZM190.312 76.375V82.1094H192.422V83.1406H190.312V90.2656H189.078V76.375H190.312ZM183.531 77.8906C183.516 81.2031 182.766 84.4531 180.25 87.125L179.266 86.4219C181.367 84.2734 182.211 81.6875 182.375 78.9219H179.703V77.8906H183.531ZM187.344 77.8906C187.328 81.1875 186.844 85.0156 184.25 88.0469L183.25 87.3594C185.422 84.9062 186.078 81.8203 186.188 78.9219H183.969V77.8906H187.344ZM205.859 87.4531V88.4844H193.141V87.4531H196.297V83.7031C195.109 83.0859 194.391 82.0859 194.391 80.8281C194.391 78.6719 196.5 77.2656 199.469 77.25C202.438 77.2656 204.547 78.6719 204.547 80.8281C204.547 82.0625 203.852 83.0547 202.703 83.6719V87.4531H205.859ZM199.469 78.2656C197.188 78.25 195.578 79.2812 195.578 80.8281C195.578 82.375 197.188 83.4219 199.469 83.4219C201.734 83.4219 203.359 82.375 203.359 80.8281C203.359 79.2812 201.734 78.25 199.469 78.2656ZM197.5 87.4531H201.469V84.1406C200.867 84.3047 200.195 84.3906 199.469 84.3906C198.758 84.3906 198.094 84.3125 197.5 84.1562V87.4531ZM209.188 85.7344C209.203 83.6406 209.844 83 210.922 82.3438C211.562 81.9531 212.062 81.3281 212.062 80.4531C212.062 79.3906 211.234 78.7188 210.203 78.7188C209.312 78.7188 208.422 79.25 208.328 80.5312H206.906C206.984 78.6406 208.422 77.5312 210.203 77.5312C212.156 77.5312 213.438 78.7969 213.438 80.5156C213.438 81.7344 212.859 82.5938 211.891 83.1875C210.922 83.7812 210.562 84.375 210.531 85.7344V85.8125H209.188V85.7344ZM209.906 89.0938C209.359 89.0938 208.891 88.6406 208.906 88.0781C208.891 87.5312 209.359 87.0781 209.906 87.0781C210.453 87.0781 210.906 87.5312 210.906 88.0781C210.906 88.6406 210.453 89.0938 209.906 89.0938Z" fill="white"/>
</g>
<path d="M236 200.333C234.527 200.333 233.333 201.527 233.333 203C233.333 204.473 234.527 205.667 236 205.667C237.473 205.667 238.667 204.473 238.667 203C238.667 201.527 237.473 200.333 236 200.333ZM235.5 138L235.5 139.016L236.5 139.016L236.5 138L235.5 138ZM235.5 141.047L235.5 143.078L236.5 143.078L236.5 141.047L235.5 141.047ZM235.5 145.109L235.5 147.141L236.5 147.141L236.5 145.109L235.5 145.109ZM235.5 149.172L235.5 151.203L236.5 151.203L236.5 149.172L235.5 149.172ZM235.5 153.234L235.5 155.266L236.5 155.266L236.5 153.234L235.5 153.234ZM235.5 157.297L235.5 159.328L236.5 159.328L236.5 157.297L235.5 157.297ZM235.5 161.359L235.5 163.391L236.5 163.391L236.5 161.359L235.5 161.359ZM235.5 165.422L235.5 167.453L236.5 167.453L236.5 165.422L235.5 165.422ZM235.5 169.484L235.5 171.516L236.5 171.516L236.5 169.484L235.5 169.484ZM235.5 173.547L235.5 175.578L236.5 175.578L236.5 173.547L235.5 173.547ZM235.5 177.609L235.5 179.641L236.5 179.641L236.5 177.609L235.5 177.609ZM235.5 181.672L235.5 183.703L236.5 183.703L236.5 181.672L235.5 181.672ZM235.5 185.734L235.5 187.766L236.5 187.766L236.5 185.734L235.5 185.734ZM235.5 189.797L235.5 191.828L236.5 191.828L236.5 189.797L235.5 189.797ZM235.5 193.859L235.5 195.891L236.5 195.891L236.5 193.859L235.5 193.859ZM235.5 197.922L235.5 199.953L236.5 199.953L236.5 197.922L235.5 197.922ZM235.5 201.984L235.5 203L236.5 203L236.5 201.984L235.5 201.984Z" fill="black"/>
<defs>
<filter id="filter0_d_3304_6852" x="0" y="0" width="290" height="152" filterUnits="userSpaceOnUse" color-interpolation-filters="sRGB">
<feFlood flood-opacity="0" result="BackgroundImageFix"/>
<feColorMatrix in="SourceAlpha" type="matrix" values="0 0 0 0 0 0 0 0 0 0 0 0 0 0 0 0 0 0 127 0" result="hardAlpha"/>
<feOffset dy="4"/>
<feGaussianBlur stdDeviation="5"/>
<feComposite in2="hardAlpha" operator="out"/>
<feColorMatrix type="matrix" values="0 0 0 0 0 0 0 0 0 0 0 0 0 0 0 0 0 0 0.4 0"/>
<feBlend mode="normal" in2="BackgroundImageFix" result="effect1_dropShadow_3304_6852"/>
<feBlend mode="normal" in="SourceGraphic" in2="effect1_dropShadow_3304_6852" result="shape"/>
</filter>
</defs>
</svg>
