<svg width="14" height="10" viewBox="0 0 14 10" fill="none" xmlns="http://www.w3.org/2000/svg">
<g id="Group 183">
<path id="Line 118 (Stroke)" fill-rule="evenodd" clip-rule="evenodd" d="M0.400391 1.00039C0.400391 0.66902 0.66902 0.400391 1.00039 0.400391H13.0004C13.3318 0.400391 13.6004 0.66902 13.6004 1.00039C13.6004 1.33176 13.3318 1.60039 13.0004 1.60039H1.00039C0.66902 1.60039 0.400391 1.33176 0.400391 1.00039Z" fill="black"/>
<path id="Line 119 (Stroke)" fill-rule="evenodd" clip-rule="evenodd" d="M2.40039 5.00039C2.40039 4.66902 2.66902 4.40039 3.00039 4.40039L11.0004 4.40039C11.3318 4.40039 11.6004 4.66902 11.6004 5.00039C11.6004 5.33176 11.3318 5.60039 11.0004 5.60039L3.00039 5.60039C2.66902 5.60039 2.40039 5.33176 2.40039 5.00039Z" fill="black"/>
<path id="Line 120 (Stroke)" fill-rule="evenodd" clip-rule="evenodd" d="M4.40039 9.00039C4.40039 8.66902 4.66902 8.40039 5.00039 8.40039L9.00039 8.40039C9.33176 8.40039 9.60039 8.66902 9.60039 9.00039C9.60039 9.33176 9.33176 9.60039 9.00039 9.60039L5.00039 9.60039C4.66902 9.60039 4.40039 9.33176 4.40039 9.00039Z" fill="black"/>
</g>
</svg>
