<svg width="11" height="13" viewBox="0 0 11 13" fill="none" xmlns="http://www.w3.org/2000/svg">
<g id="Group 184">
<path id="Vector (Stroke)" fill-rule="evenodd" clip-rule="evenodd" d="M5.5 0C5.6382 0 5.77025 0.0572041 5.86477 0.158029L7.73977 2.15803C7.92863 2.35949 7.91843 2.6759 7.71697 2.86477C7.51551 3.05363 7.1991 3.04343 7.01023 2.84197L5.5 1.23106L3.98977 2.84197C3.8009 3.04343 3.48449 3.05363 3.28303 2.86477C3.08157 2.6759 3.07137 2.35949 3.26023 2.15803L5.13523 0.158029C5.22975 0.0572041 5.3618 0 5.5 0ZM0 5.16667C0 4.89052 0.223858 4.66667 0.5 4.66667H10.5C10.7761 4.66667 11 4.89052 11 5.16667C11 5.44281 10.7761 5.66667 10.5 5.66667H0.5C0.223858 5.66667 0 5.44281 0 5.16667ZM0 7.83333C0 7.55719 0.223858 7.33333 0.5 7.33333H10.5C10.7761 7.33333 11 7.55719 11 7.83333C11 8.10948 10.7761 8.33333 10.5 8.33333H0.5C0.223858 8.33333 0 8.10948 0 7.83333ZM3.28303 10.1352C3.48449 9.94637 3.8009 9.95657 3.98977 10.158L5.5 11.7689L7.01023 10.158C7.1991 9.95657 7.51551 9.94637 7.71697 10.1352C7.91843 10.3241 7.92863 10.6405 7.73977 10.842L5.86477 12.842C5.77025 12.9428 5.6382 13 5.5 13C5.3618 13 5.22975 12.9428 5.13523 12.842L3.26023 10.842C3.07137 10.6405 3.08157 10.3241 3.28303 10.1352Z" fill="black"/>
</g>
</svg>
