<svg width="34" height="34" viewBox="0 0 34 34" fill="none" xmlns="http://www.w3.org/2000/svg">
<g id="ic_search">
<path id="Vector" d="M27.3468 25.5321L22.5072 20.6924C23.6723 19.1413 24.3013 17.2532 24.2992 15.3132C24.2992 10.3578 20.2676 6.32617 15.3122 6.32617C10.3568 6.32617 6.3252 10.3578 6.3252 15.3132C6.3252 20.2686 10.3568 24.3002 15.3122 24.3002C17.2522 24.3023 19.1403 23.6733 20.6914 22.5081L25.5311 27.3478C25.7761 27.5668 26.0956 27.6837 26.4241 27.6745C26.7526 27.6653 27.065 27.5307 27.2974 27.2984C27.5297 27.066 27.6643 26.7535 27.6735 26.4251C27.6827 26.0966 27.5658 25.7771 27.3468 25.5321ZM8.89291 15.3132C8.89291 14.0436 9.2694 12.8025 9.97476 11.7468C10.6801 10.6912 11.6827 9.86839 12.8556 9.38253C14.0286 8.89667 15.3193 8.76954 16.5645 9.01723C17.8098 9.26492 18.9536 9.8763 19.8513 10.7741C20.7491 11.6718 21.3605 12.8156 21.6081 14.0608C21.8558 15.3061 21.7287 16.5968 21.2429 17.7697C20.757 18.9427 19.9342 19.9453 18.8786 20.6506C17.8229 21.356 16.5818 21.7325 15.3122 21.7325C13.6103 21.7304 11.9787 21.0535 10.7753 19.85C9.57193 18.6466 8.89495 17.0151 8.89291 15.3132Z" fill="black"/>
</g>
</svg>
